<?xml version="1.0" encoding="utf-8"?>
<!-- Generator: Adobe Illustrator 27.5.0, SVG Export Plug-In . SVG Version: 6.00 Build 0)  -->
<svg version="1.1" xmlns="http://www.w3.org/2000/svg" xmlns:xlink="http://www.w3.org/1999/xlink" x="0px" y="0px"
	 viewBox="0 0 600 500" style="enable-background:new 0 0 600 500;" xml:space="preserve">
<g id="BACKGROUND">
	<rect style="fill:#FFFFFF;" width="600" height="500"/>
</g>
<g id="OBJECTS">
	<g>
		<path style="fill:#BEDCE0;" d="M400.542,147.4V126.55H382.41c-0.927-3.461-2.29-6.737-4.049-9.768l12.823-12.823l-14.741-14.741
			l-12.823,12.823c-3.031-1.759-6.307-3.122-9.768-4.049V79.861h-20.849v18.131c-3.461,0.927-6.737,2.29-9.767,4.049l-12.823-12.823
			l-14.741,14.741l12.823,12.823c-1.759,3.031-3.122,6.307-4.049,9.768h-18.131V147.4h18.131c0.927,3.461,2.29,6.737,4.049,9.768
			l-12.823,12.823l14.741,14.741l12.823-12.822c3.031,1.759,6.307,3.122,9.767,4.049v18.132h20.849v-18.132
			c3.461-0.927,6.737-2.29,9.768-4.049l12.823,12.822l14.741-14.741l-12.823-12.823c1.759-3.031,3.122-6.307,4.049-9.768H400.542z
			 M362.974,136.975c0,10.777-8.769,19.546-19.546,19.546c-10.777,0-19.546-8.769-19.546-19.546
			c0-10.777,8.769-19.546,19.546-19.546C354.205,117.429,362.974,126.198,362.974,136.975z"/>
		<g>
			<path style="fill:#6E9296;" d="M258.001,75.805h-117.84c-7.159,0-12.962,5.803-12.962,12.962v48.027
				c0,7.159,5.803,12.962,12.962,12.962h12.397c2.225,0,4.028,1.803,4.028,4.028v16.224c0,1.264,1.579,1.838,2.39,0.869
				l15.485-18.483c1.401-1.672,3.47-2.638,5.651-2.638h77.889c7.159,0,12.962-5.803,12.962-12.962V88.767
				C270.964,81.608,265.16,75.805,258.001,75.805z"/>
			<g>
				<g>
					<g>
						
							<line style="fill:none;stroke:#BEDCE0;stroke-width:1.1525;stroke-miterlimit:10;" x1="144.289" y1="114.433" x2="144.289" y2="132.579"/>
						
							<line style="fill:none;stroke:#BEDCE0;stroke-width:1.1525;stroke-miterlimit:10;" x1="157.987" y1="108.309" x2="157.987" y2="132.579"/>
						
							<line style="fill:none;stroke:#BEDCE0;stroke-width:1.1525;stroke-miterlimit:10;" x1="171.685" y1="115.119" x2="171.685" y2="132.579"/>
						
							<line style="fill:none;stroke:#BEDCE0;stroke-width:1.1525;stroke-miterlimit:10;" x1="185.383" y1="110.688" x2="185.383" y2="132.579"/>
						
							<line style="fill:none;stroke:#BEDCE0;stroke-width:1.1525;stroke-miterlimit:10;" x1="199.082" y1="100.354" x2="199.082" y2="132.579"/>
						
							<line style="fill:none;stroke:#BEDCE0;stroke-width:1.1525;stroke-miterlimit:10;" x1="212.78" y1="96.285" x2="212.78" y2="132.579"/>
						
							<line style="fill:none;stroke:#BEDCE0;stroke-width:1.1525;stroke-miterlimit:10;" x1="226.478" y1="107.005" x2="226.478" y2="132.579"/>
						
							<line style="fill:none;stroke:#BEDCE0;stroke-width:1.1525;stroke-miterlimit:10;" x1="240.176" y1="101.38" x2="240.176" y2="132.579"/>
						
							<line style="fill:none;stroke:#BEDCE0;stroke-width:1.1525;stroke-miterlimit:10;" x1="253.875" y1="90.232" x2="253.875" y2="132.579"/>
					</g>
					<line style="fill:none;stroke:#BEDCE0;stroke-miterlimit:10;" x1="136.814" y1="132.579" x2="261.349" y2="132.579"/>
				</g>
				<path style="fill:none;stroke:#FFFFFF;stroke-miterlimit:10;" d="M140.078,118.395c0,0,8.817-9.692,16.493-10.119
					c7.676-0.427,8.56,8.725,19.71,6.603c11.149-2.123,21.933-17.558,32.563-18.901c10.629-1.342,10.319,13.322,21.26,10.836
					c10.941-2.487,16.65-14.635,27.529-18.245"/>
				<path style="fill:#EBBC3B;" d="M256.007,90.232c0,1.177-0.954,2.132-2.132,2.132c-1.177,0-2.132-0.954-2.132-2.132
					c0-1.177,0.954-2.132,2.132-2.132C255.052,88.1,256.007,89.055,256.007,90.232z"/>
				<circle style="fill:#EBBC3B;" cx="240.176" cy="101.593" r="2.132"/>
				<path style="fill:#EBBC3B;" d="M228.61,107.005c0,1.177-0.954,2.132-2.132,2.132c-1.177,0-2.132-0.954-2.132-2.132
					c0-1.177,0.954-2.132,2.132-2.132C227.656,104.873,228.61,105.828,228.61,107.005z"/>
				<path style="fill:#EBBC3B;" d="M214.912,96.285c0,1.177-0.955,2.132-2.132,2.132c-1.177,0-2.132-0.955-2.132-2.132
					c0-1.177,0.954-2.132,2.132-2.132C213.957,94.153,214.912,95.107,214.912,96.285z"/>
				<path style="fill:#EBBC3B;" d="M201.214,100.354c0,1.177-0.954,2.132-2.132,2.132c-1.177,0-2.132-0.954-2.132-2.132
					c0-1.177,0.954-2.132,2.132-2.132C200.259,98.222,201.214,99.177,201.214,100.354z"/>
				<path style="fill:#EBBC3B;" d="M187.515,110.688c0,1.177-0.954,2.132-2.132,2.132c-1.177,0-2.132-0.955-2.132-2.132
					s0.954-2.132,2.132-2.132C186.561,108.556,187.515,109.51,187.515,110.688z"/>
				<path style="fill:#EBBC3B;" d="M173.817,115.119c0,1.177-0.954,2.132-2.132,2.132s-2.132-0.955-2.132-2.132
					c0-1.177,0.954-2.132,2.132-2.132S173.817,113.942,173.817,115.119z"/>
				<path style="fill:#EBBC3B;" d="M160.119,108.556c0,1.177-0.954,2.132-2.132,2.132c-1.177,0-2.132-0.954-2.132-2.132
					c0-1.177,0.954-2.132,2.132-2.132C159.164,106.424,160.119,107.378,160.119,108.556z"/>
				<path style="fill:#EBBC3B;" d="M146.421,114.433c0,1.177-0.954,2.132-2.132,2.132s-2.132-0.954-2.132-2.132
					c0-1.178,0.955-2.132,2.132-2.132S146.421,113.255,146.421,114.433z"/>
			</g>
		</g>
		<circle style="fill:#DDE9EB;" cx="188.096" cy="281.27" r="106.243"/>
		<path style="fill:#BEDCE0;" d="M494.41,411.641c2.735-10.834,4.193-22.176,4.193-33.86c0-76.177-61.753-137.93-137.93-137.93
			s-137.93,61.753-137.93,137.93c0,11.684,1.459,23.026,4.193,33.86H494.41z"/>
		<path style="fill:#4A75C9;" d="M490.805,115.157l-43.231,16.857c-1.73,0.674-2.15,2.93-0.78,4.183l8.284,7.575l-74.269,88
			l-38.778-25.009c-4.173-2.69-9.705-1.782-12.797,2.105l-70.546,88.664l-53.94-40.797c-2.099-1.587-4.752-2.251-7.355-1.834
			c-2.599,0.416-4.916,1.874-6.415,4.038L85.188,411.641h23.507l92.431-133.418l53.424,40.407
			c4.182,3.162,10.124,2.413,13.388-1.691l70.97-89.196l38.568,24.873c4.083,2.633,9.485,1.824,12.62-1.888l79.254-93.905
			l7.745,7.082c1.37,1.253,3.579,0.632,4.096-1.151l12.93-44.564C494.7,116.195,492.74,114.403,490.805,115.157z"/>
		<path style="fill:#EBBC3B;" d="M416.747,250.452H270.108c-7.159,0-12.962-5.803-12.962-12.962v-88.404
			c0-7.159,5.803-12.962,12.962-12.962h146.639c7.159,0,12.962,5.803,12.962,12.962v88.404
			C429.709,244.649,423.906,250.452,416.747,250.452z"/>
		<g>
			<g>
				<g>
					<polyline style="fill:none;stroke:#FFFFFF;stroke-linecap:round;stroke-linejoin:round;stroke-miterlimit:10;" points="
						396.763,166.402 400.608,170.134 406.839,163.643 					"/>
					
						<circle style="fill:none;stroke:#FFFFFF;stroke-linecap:round;stroke-linejoin:round;stroke-miterlimit:10;" cx="359.211" cy="168.21" r="3.139"/>
					
						<line style="fill:none;stroke:#FFFFFF;stroke-linecap:round;stroke-linejoin:round;stroke-miterlimit:10;" x1="366.754" y1="168.21" x2="392.481" y2="168.21"/>
				</g>
				<g>
					<polyline style="fill:none;stroke:#FFFFFF;stroke-linecap:round;stroke-linejoin:round;stroke-miterlimit:10;" points="
						396.763,183.596 400.608,187.329 406.839,180.838 					"/>
					
						<circle style="fill:none;stroke:#FFFFFF;stroke-linecap:round;stroke-linejoin:round;stroke-miterlimit:10;" cx="359.211" cy="185.405" r="3.139"/>
					
						<line style="fill:none;stroke:#FFFFFF;stroke-linecap:round;stroke-linejoin:round;stroke-miterlimit:10;" x1="366.754" y1="185.405" x2="392.481" y2="185.405"/>
				</g>
				<g>
					<polyline style="fill:none;stroke:#FFFFFF;stroke-linecap:round;stroke-linejoin:round;stroke-miterlimit:10;" points="
						396.763,200.791 400.608,204.523 406.839,198.033 					"/>
					
						<circle style="fill:none;stroke:#FFFFFF;stroke-linecap:round;stroke-linejoin:round;stroke-miterlimit:10;" cx="359.211" cy="202.6" r="3.139"/>
					
						<line style="fill:none;stroke:#FFFFFF;stroke-linecap:round;stroke-linejoin:round;stroke-miterlimit:10;" x1="366.754" y1="202.6" x2="392.481" y2="202.6"/>
				</g>
				<g>
					<polyline style="fill:none;stroke:#FFFFFF;stroke-linecap:round;stroke-linejoin:round;stroke-miterlimit:10;" points="
						396.763,217.986 400.608,221.718 406.839,215.227 					"/>
					
						<circle style="fill:none;stroke:#FFFFFF;stroke-linecap:round;stroke-linejoin:round;stroke-miterlimit:10;" cx="359.211" cy="219.795" r="3.139"/>
					
						<line style="fill:none;stroke:#FFFFFF;stroke-linecap:round;stroke-linejoin:round;stroke-miterlimit:10;" x1="366.754" y1="219.795" x2="392.481" y2="219.795"/>
				</g>
			</g>
			<g>
				<g>
					<g>
						
							<ellipse transform="matrix(0.7071 -0.7071 0.7071 0.7071 -47.1251 272.8071)" style="fill:#D65353;" cx="305.745" cy="193.289" rx="40.719" ry="40.719"/>
						
							<ellipse transform="matrix(0.7071 -0.7071 0.7071 0.7071 -47.1251 272.8071)" style="fill:#FFFFFF;" cx="305.745" cy="193.289" rx="32.48" ry="32.48"/>
						
							<ellipse transform="matrix(0.7071 -0.7071 0.7071 0.7071 -47.1251 272.8071)" style="fill:#D65353;" cx="305.745" cy="193.289" rx="24.242" ry="24.242"/>
						
							<ellipse transform="matrix(0.9223 -0.3864 0.3864 0.9223 -50.9429 133.1698)" style="fill:#FFFFFF;" cx="305.745" cy="193.289" rx="16.004" ry="16.004"/>
						<circle style="fill:#D65353;" cx="305.745" cy="193.289" r="7.765"/>
					</g>
				</g>
				<g>
					<g>
						<g>
							<polygon style="fill:#1B2536;" points="260.658,193.289 256.697,193.289 253.537,185.467 257.499,185.467 							"/>
							<polygon style="fill:#415780;" points="264.62,193.289 260.658,193.289 257.499,185.467 261.46,185.467 							"/>
							<polygon style="fill:#1B2536;" points="268.582,193.289 264.62,193.289 261.46,185.467 265.422,185.467 							"/>
							<polygon style="fill:#415780;" points="272.544,193.289 268.582,193.289 265.422,185.467 269.384,185.467 							"/>
						</g>
						<g>
							<polygon style="fill:#1B2536;" points="260.658,193.289 256.697,193.289 253.537,201.11 257.499,201.11 							"/>
							<polygon style="fill:#415780;" points="264.62,193.289 260.658,193.289 257.499,201.11 261.46,201.11 							"/>
							<polygon style="fill:#1B2536;" points="268.582,193.289 264.62,193.289 261.46,201.11 265.422,201.11 							"/>
							<polygon style="fill:#415780;" points="272.544,193.289 268.582,193.289 265.422,201.11 269.384,201.11 							"/>
						</g>
					</g>
					
						<line style="fill:none;stroke:#1B2536;stroke-width:0.9185;stroke-linecap:round;stroke-linejoin:round;stroke-miterlimit:10;" x1="254.898" y1="193.289" x2="305.745" y2="193.289"/>
				</g>
			</g>
		</g>
		<g>
			<g>
				<path style="fill:#DE6767;" d="M269.006,279.639l11.18-13.043l0.572-3.352c0.37-2.168,1.211-4.227,2.466-6.033l1.571-2.262
					c0.198-0.284,0.573-0.382,0.884-0.229l0,0c0.294,0.144,0.449,0.473,0.372,0.792l-1.004,4.199l0.677-0.368
					c2.042-1.109,3.534-3.014,4.122-5.262l0,0c0.211-0.805,1.067-1.257,1.85-0.976l1.548,0.556c0.742,0.267,1.189,1.025,1.062,1.803
					l-0.996,6.094l2.673-2.901l0.486,0.567l-2.715,4.073c-0.454,0.682-1.024,1.279-1.684,1.766l-5.484,4.045l-8.911,19.767
					L269.006,279.639z"/>
				<path style="fill:none;stroke:#422424;stroke-width:0.5;stroke-miterlimit:10;" d="M292.186,262.049l-1.124,0.759
					c0,0-6.015-0.547-8.111,4.982"/>
				
					<line style="fill:none;stroke:#422424;stroke-width:0.5;stroke-miterlimit:10;" x1="286.808" y1="259.801" x2="291.061" y2="262.809"/>
				<path style="fill:none;stroke:#422424;stroke-width:0.5;stroke-miterlimit:10;" d="M291.76,253.482c0,0-1.051,4.772-3.64,7.247"
					/>
				<path style="fill:none;stroke:#422424;stroke-width:0.5;stroke-miterlimit:10;" d="M293.006,253.968c0,0-0.579,5.428-3.176,7.97
					"/>
			</g>
			<polygon style="fill:#FFFFFF;" points="269.006,279.639 272.018,276.125 282.469,285.018 277.937,290.657 			"/>
			<path style="fill:#D9956A;" d="M245.96,266.87l14.904,21.518l8.142-8.749l11.666,9.6l-13.367,20.415h-32.081l-3.283-53.707
				l2.242,1.033C238.921,259.165,242.988,262.58,245.96,266.87z"/>
			<path style="fill:#D9956A;" d="M230.525,255.294l4.884,2.252c3.72,1.715,6.243,5.284,6.619,9.363l0,0
				c3.767,5.56,4.861,13.58,1.458,20.75l5.59,21.995h-48.729l-1.251-33.142c-0.294-7.792,3.74-15.108,10.486-19.019l3.023-1.753
				l12.106-1.985L230.525,255.294z"/>
			<path style="fill:#D9956A;" d="M208.493,297.782l1.941-22.032l-0.042-18.727l-5.653,3.277c-3.955,2.293-6.906,5.983-8.276,10.345
				c-2.584,8.233-6.717,21.685-7.903,27.221c-1.823,8.506,1.944,13.489,7.413,13.489c3.767,0,21.995,0,21.995,0v-11.139
				L208.493,297.782z"/>
			
				<line style="fill:none;stroke:#1B2536;stroke-width:0.5;stroke-miterlimit:10;" x1="200.307" y1="295.679" x2="217.968" y2="300.216"/>
			
				<line style="fill:none;stroke:#1B2536;stroke-width:0.5;stroke-miterlimit:10;" x1="210.429" y1="273.806" x2="208.493" y2="297.782"/>
			
				<line style="fill:none;stroke:#1B2536;stroke-width:0.5;stroke-miterlimit:10;" x1="260.864" y1="288.388" x2="252.317" y2="297.782"/>
			<path style="fill:none;stroke:#1B2536;stroke-width:0.5;stroke-miterlimit:10;" d="M213.35,275.325c0,0-0.981,4.132-3.559,6.38"
				/>
			<g>
				<path style="fill:#EBBC3B;" d="M208.186,228.7c0,0-1.944,0-4.678,0c-2.734,0-4.496,2.856-4.071,5.59
					c0.425,2.734,3.767,6.44,3.767,9.114c0,2.674-4.192,5.043-4.192,11.119h11.97c0,0-0.304-1.641,1.155-4.132
					c1.048-1.79,1.083-4.618-0.279-6.866c-1.362-2.248-0.815-7.777-0.815-7.777L208.186,228.7z"/>
				<path style="fill:#1B2536;" d="M211.856,243.525c-1.362-2.248-0.815-7.777-0.815-7.777l-2.856-7.048c0,0-0.61,0-1.604,0
					c-1.291,1.599-1.816,3.833-1.361,6.243c0.905,4.791,5.371,8.169,6.977,9.246C212.093,243.964,211.987,243.74,211.856,243.525z"
					/>
				<path style="fill:#EBBC3B;" d="M213.198,225.198c3.737-5.408,14.856-6.977,18.742-0.813c2.677,4.246,0.386,9.549-2.57,10.407
					l-16.506,7.397c0,0-6.015-3.5-7.048-8.97C204.937,228.566,207.942,224.591,213.198,225.198z"/>
				<path style="fill:#DE6767;" d="M212.606,239.133c5.291-2.876,5.119-9.722,5.119-9.722s5.63,1.742,11.342,0.77l0.405,6.157
					c3.2,3.605,2.066,10.208-2.228,11.949l0.851,5.347c0,0-6.197,2.997-12.719,0l-0.932-11.445L212.606,239.133z"/>
				<circle style="fill:#D15454;" cx="219.691" cy="240.821" r="1.723"/>
				<path style="fill:none;stroke:#422424;stroke-width:0.5;stroke-miterlimit:10;" d="M226.758,248.53c0,0-3.686,1.661-8.79-0.527"
					/>
				<g>
					<path style="fill:#1B2536;" d="M220.119,234.934c-0.675,0.054-1.178,0.645-1.123,1.319c0.013,0.16,0.058,0.309,0.125,0.444
						l0.927-0.442l-0.583,0.862c0.234,0.183,0.532,0.285,0.851,0.259c0.675-0.054,1.178-0.645,1.123-1.319
						C221.384,235.383,220.793,234.88,220.119,234.934z"/>
					<path style="fill:#1B2536;" d="M226.922,234.388c-0.674,0.054-1.178,0.645-1.123,1.319c0.013,0.16,0.058,0.309,0.125,0.444
						l0.927-0.442l-0.583,0.862c0.234,0.183,0.532,0.285,0.851,0.259c0.674-0.054,1.178-0.645,1.123-1.319
						C228.187,234.837,227.597,234.334,226.922,234.388z"/>
				</g>
				<path style="fill:none;stroke:#422424;stroke-width:0.5;stroke-miterlimit:10;" d="M223.861,234.707l0.343,1.448
					c0.132,0.559,0.437,1.063,0.87,1.441l0.346,0.302c0.481,0.419,0.273,1.207-0.352,1.334l-1.207,0.246"/>
				<path style="fill:#422424;" d="M220.767,240.917l5.99-0.651c0,0,0.263,5.56-2.258,5.701
					C222.485,246.081,220.767,240.917,220.767,240.917z"/>
				<path style="fill:#943232;" d="M223.799,242.333c-0.835,0-1.611,0.178-2.255,0.483c0.69,1.46,1.77,3.219,2.955,3.152
					c1.246-0.07,1.811-1.465,2.065-2.857C225.841,242.631,224.872,242.333,223.799,242.333z"/>
				
					<path style="fill:none;stroke:#415780;stroke-width:0.8641;stroke-linecap:round;stroke-linejoin:round;stroke-miterlimit:10;" d="
					M218.272,233.219c0,0,1.732-0.516,3.524,0"/>
				
					<path style="fill:none;stroke:#415780;stroke-width:0.8641;stroke-linecap:round;stroke-linejoin:round;stroke-miterlimit:10;" d="
					M224.955,233.219c0,0,1.296-0.749,3.099-0.223"/>
				<g>
					<path style="fill:#DE6767;" d="M216.935,240.54c0,2.064-1.673,3.737-3.737,3.737c-2.064,0-3.737-1.673-3.737-3.737
						s1.673-3.737,3.737-3.737C215.262,236.803,216.935,238.476,216.935,240.54z"/>
					<path style="fill:none;stroke:#422424;stroke-width:0.5;stroke-miterlimit:10;" d="M211.431,239.173
						c1.337-0.77,3.281-0.972,4.253,2.106"/>
					
						<line style="fill:none;stroke:#422424;stroke-width:0.5;stroke-miterlimit:10;" x1="212.606" y1="240.54" x2="214.028" y2="238.921"/>
				</g>
			</g>
			<path style="fill:#1B2536;" d="M215.25,252.091c0,0,6.389,3.001,12.599,0l2.676,3.203l-3.59,5.398l-3.101-5.885l-1.326,6.75
				l-9.902-5.817L215.25,252.091z"/>
			<path style="fill:none;stroke:#1B2536;stroke-width:0.5;stroke-miterlimit:10;" d="M243.02,268.548c0,0,5.113,8.534,0.467,19.111
				l4.473,17.6"/>
			<path style="fill:#DE6767;" d="M222.018,301.229l12.922,2.471l8.497-1.575c1.301-0.241,2.643-0.095,3.861,0.419l9.069,3.829
				v3.281h-36.82L222.018,301.229z"/>
			<polygon style="fill:#FFFFFF;" points="217.968,300.216 222.018,301.229 222.018,311.355 217.968,311.355 			"/>
		</g>
		<g>
			<g>
				<polygon style="fill:#FFFFFF;" points="278.198,276.489 275.572,276.489 265.579,307.922 268.205,307.922 306.597,307.922 
					316.589,276.489 				"/>
				<path style="fill:none;stroke:#6E9296;stroke-width:0.3975;stroke-miterlimit:10;" d="M295.939,296.418h-9.762
					c-2.037,0-3.163-1.651-2.516-3.688l0.333-1.049c0.648-2.037,2.824-3.688,4.861-3.688h9.762c2.037,0,3.163,1.651,2.516,3.688
					l-0.333,1.049C300.153,294.767,297.976,296.418,295.939,296.418z"/>
				
					<line style="fill:none;stroke:#6E9296;stroke-width:0.3975;stroke-miterlimit:10;" x1="276.731" y1="278.15" x2="267.807" y2="306.22"/>
			</g>
			<rect x="236.873" y="306.22" style="fill:#FFFFFF;" width="60.678" height="1.701"/>
		</g>
		<g>
			<g>
				<rect x="131.716" y="307.922" style="fill:#6E9296;" width="216.034" height="7.777"/>
				<rect x="139.149" y="315.699" style="fill:#6E9296;" width="201.167" height="96.547"/>
				<polygon style="fill:#1B2536;" points="340.317,315.699 139.149,315.699 139.149,340.975 340.317,323.78 				"/>
			</g>
			<path style="fill:#1B2536;" d="M340.317,333.712h-74.936c-5.794,0-10.491,4.697-10.491,10.491v46.738
				c0,5.794,4.697,10.491,10.491,10.491h74.936V333.712z"/>
		</g>
		<g>
			
				<line style="fill:none;stroke:#FFFFFF;stroke-width:2;stroke-miterlimit:10;" x1="183.251" y1="210.006" x2="183.251" y2="225.055"/>
			
				<line style="fill:none;stroke:#FFFFFF;stroke-width:2;stroke-miterlimit:10;" x1="190.776" y1="217.531" x2="175.727" y2="217.531"/>
		</g>
		<g>
			
				<line style="fill:none;stroke:#FFFFFF;stroke-width:2;stroke-miterlimit:10;" x1="345.342" y1="275.849" x2="345.342" y2="290.898"/>
			
				<line style="fill:none;stroke:#FFFFFF;stroke-width:2;stroke-miterlimit:10;" x1="352.867" y1="283.374" x2="337.818" y2="283.374"/>
		</g>
		<g>
			
				<line style="fill:none;stroke:#FFFFFF;stroke-width:2;stroke-miterlimit:10;" x1="467.554" y1="376.628" x2="467.554" y2="391.677"/>
			
				<line style="fill:none;stroke:#FFFFFF;stroke-width:2;stroke-miterlimit:10;" x1="475.079" y1="384.152" x2="460.03" y2="384.152"/>
		</g>
		<g>
			
				<line style="fill:none;stroke:#DDE9EB;stroke-width:2;stroke-miterlimit:10;" x1="89.521" y1="354.058" x2="89.521" y2="369.107"/>
			
				<line style="fill:none;stroke:#DDE9EB;stroke-width:2;stroke-miterlimit:10;" x1="97.046" y1="361.583" x2="81.997" y2="361.583"/>
		</g>
		<g>
			<path style="fill:#FFFFFF;" d="M363.031,396.186h-91.69c-5.794,0-10.491-4.697-10.491-10.49v-50.958
				c0-5.794,4.697-10.491,10.491-10.491h91.69c5.794,0,10.491,4.697,10.491,10.491v50.958
				C373.521,391.489,368.824,396.186,363.031,396.186z"/>
			<g>
				
					<ellipse transform="matrix(0.1589 -0.9873 0.9873 0.1589 -105.6559 596.41)" style="fill:#BEDCE0;" cx="297.215" cy="360.216" rx="25.6" ry="25.6"/>
				<path style="fill:#D65353;" d="M319.902,348.36c-4.277-8.168-12.829-13.744-22.688-13.744v25.6L319.902,348.36z"/>
				<path style="fill:#6E9296;" d="M306.122,384.221c9.747-3.618,16.693-13,16.693-24.005c0-4.28-1.056-8.31-2.912-11.856
					l-22.688,11.856L306.122,384.221z"/>
				<path style="fill:#415780;" d="M297.215,385.816c3.133,0,6.133-0.565,8.907-1.595l-8.907-24.005l-9.082,23.936
					C290.956,385.224,294.015,385.816,297.215,385.816z"/>
				<path style="fill:#4A75C9;" d="M297.215,360.216l-24.453-7.598c-0.745,2.401-1.147,4.953-1.147,7.598
					c0,10.939,6.864,20.271,16.518,23.936L297.215,360.216z"/>
			</g>
			<g>
				<g>
					<rect x="329.337" y="340.841" style="fill:#D65353;" width="3.936" height="3.936"/>
					<rect x="334.742" y="340.841" style="fill:#BEDCE0;" width="21.2" height="1.073"/>
					<rect x="334.742" y="343.703" style="fill:#BEDCE0;" width="25.554" height="1.073"/>
				</g>
				<g>
					<rect x="329.337" y="349.544" style="fill:#6E9296;" width="3.936" height="3.936"/>
					<rect x="334.742" y="349.544" style="fill:#BEDCE0;" width="21.2" height="1.073"/>
					<rect x="334.742" y="352.407" style="fill:#BEDCE0;" width="25.554" height="1.073"/>
				</g>
				<g>
					<rect x="329.337" y="358.248" style="fill:#415780;" width="3.936" height="3.935"/>
					<rect x="334.742" y="358.248" style="fill:#BEDCE0;" width="21.2" height="1.073"/>
					<rect x="334.742" y="361.111" style="fill:#BEDCE0;" width="25.554" height="1.073"/>
				</g>
				<g>
					<rect x="329.337" y="366.952" style="fill:#4A75C9;" width="3.936" height="3.936"/>
					<rect x="334.742" y="366.952" style="fill:#BEDCE0;" width="21.2" height="1.073"/>
					<rect x="334.742" y="369.815" style="fill:#BEDCE0;" width="25.554" height="1.073"/>
				</g>
				<g>
					<rect x="329.337" y="375.656" style="fill:#BEDCE0;" width="3.936" height="3.936"/>
					<rect x="334.742" y="375.656" style="fill:#BEDCE0;" width="21.2" height="1.073"/>
					<rect x="334.742" y="378.518" style="fill:#BEDCE0;" width="25.554" height="1.073"/>
				</g>
			</g>
		</g>
		<g>
			<path style="fill:#EBBC3B;" d="M236.375,175.266c-0.843-6.103-6.145-13.949-16.387-13.949c-10.242,0-15.544,7.846-16.387,13.949
				c-0.829,5.999,0.732,9.462,3.707,14.339c3.255,5.335,4.487,12.681,4.487,12.681h8.194h8.194c0,0,1.232-7.345,4.487-12.681
				C235.643,184.728,237.204,181.265,236.375,175.266z"/>
			<path style="fill:#1B2536;" d="M219.987,201.971c-3.597,0-6.776-0.171-8.633-0.431l1.637,11.278
				c0.049,0.34,3.181,0.613,6.996,0.613c3.815,0,6.947-0.272,6.996-0.613l1.637-11.278
				C226.763,201.8,223.584,201.971,219.987,201.971z"/>
			<path style="fill:#1B2536;" d="M224.449,212.186c0,1.758-1.997,3.182-4.462,3.182c-2.464,0-4.462-1.425-4.462-3.182
				c0-1.758,1.997-3.182,4.462-3.182C222.451,209.003,224.449,210.428,224.449,212.186z"/>
			
				<path style="fill:none;stroke:#FFFFFF;stroke-width:0.6051;stroke-linecap:round;stroke-linejoin:round;stroke-miterlimit:10;" d="
				M224.345,188.093l0.765-5.243h-0.007c0.034-0.203,0.067-0.411,0.098-0.625c0.568-3.891,0.31-7.727-0.697-7.727
				c-0.625,0-1.297,1.563-1.764,3.74c-0.166-2.177-0.621-3.74-1.246-3.74s-1.189,1.563-1.505,3.74
				c-0.317-2.177-0.88-3.74-1.505-3.74s-1.08,1.563-1.246,3.74c-0.468-2.177-1.139-3.74-1.764-3.74
				c-1.007,0-1.265,3.836-0.697,7.727c0.031,0.213,0.064,0.422,0.098,0.625l0,0l0.757,5.243"/>
		</g>
		
			<line style="fill:none;stroke:#28364F;stroke-width:1.2517;stroke-miterlimit:10;" x1="39.821" y1="412.246" x2="524.682" y2="412.246"/>
		<g>
			<path style="fill:#EBBC3B;" d="M500.932,184.6h-29.189c-3.55,0-6.428,2.878-6.428,6.428v13.288l-11.927,11.198h11.927v4.703
				c0,3.55,2.878,6.428,6.428,6.428h29.189c3.55,0,6.428-2.878,6.428-6.428v-29.189C507.36,187.478,504.482,184.6,500.932,184.6z"/>
			<g>
				<path style="fill:#FFFFFF;" d="M495.112,210.207c0,1.865-0.674,3.364-2.024,4.496c-1.349,1.132-3.238,1.809-5.666,2.032v3.607
					h-2.411v-3.537c-2.862-0.059-5.373-0.563-7.531-1.513v-4.645c1.021,0.504,2.249,0.95,3.686,1.337
					c1.437,0.387,2.719,0.616,3.845,0.686v-5.455l-1.179-0.458c-2.323-0.915-3.968-1.909-4.936-2.983
					c-0.968-1.073-1.452-2.402-1.452-3.985c0-1.701,0.666-3.1,1.997-4.197c1.331-1.097,3.188-1.762,5.569-1.997v-2.692h2.411v2.622
					c2.686,0.117,5.115,0.657,7.285,1.619l-1.654,4.118c-1.83-0.751-3.707-1.208-5.631-1.372v5.191
					c2.288,0.88,3.915,1.642,4.883,2.288c0.968,0.645,1.677,1.355,2.129,2.129S495.112,209.174,495.112,210.207z M482.742,199.79
					c0,0.516,0.179,0.941,0.537,1.276c0.358,0.334,0.935,0.677,1.733,1.029v-4.135C483.498,198.183,482.742,198.793,482.742,199.79z
					 M489.815,210.471c0-0.493-0.199-0.909-0.598-1.249c-0.399-0.34-0.997-0.692-1.795-1.056v4.381
					C489.017,212.277,489.815,211.585,489.815,210.471z"/>
			</g>
		</g>
		<g>
			<path style="fill:#D68D8D;" d="M398.869,355.457l7.372,36.616l-4.277,12.535c-0.277,0.813-0.743,1.55-1.358,2.15l-3.83,3.736
				c-0.655,0.639-0.203,1.751,0.713,1.751h1.784c2.581,0,5.044-1.085,6.785-2.991l7.556-8.27v11.261h2.43l1.226-8.091
				c0.779-5.142-0.237-10.395-2.878-14.875l-0.454-0.77l0.486-33.052H398.869z"/>
			<path style="fill:#D68D8D;" d="M426.616,355.457l7.899,34.874l-0.653,2.104c-1.113,3.59-1.315,7.401-0.586,11.089l1.724,8.721
				h2.673l0.729-9.471l6.19,6.578c1.737,1.846,4.159,2.892,6.693,2.892h3.404c0.965,0,1.391-1.216,0.637-1.818l-3.772-3.013
				c-0.658-0.526-1.186-1.196-1.542-1.959l-7.235-15.488l-0.668-34.51H426.616z"/>
			<polygon style="fill:#28364F;" points="399.746,359.813 414.334,361.583 414.424,355.457 398.869,355.457 			"/>
			<polygon style="fill:#28364F;" points="442.11,355.457 426.616,355.457 428.39,363.288 442.294,364.975 			"/>
			<circle style="fill:#1B2536;" cx="425.649" cy="184.737" r="6.167"/>
			<path style="fill:#415780;" d="M418.778,198.939c0,0,5.725-1.327,7.653-5.419c1.722-3.654-1.03-4.485-1.03-4.485
				s3.793-6.076-2.113-7.777c0.777-4.01-2.261-8.02-6.818-5.894c-2.673-5.347-10.025-3.038-10.268-0.061
				c-4.192-2.856-9.479,6.015-5.833,8.567c-2.066,3.038,1.276,6.198,6.501,5.165L418.778,198.939z"/>
			<polygon style="fill:#FFFFFF;" points="408.83,206.791 420.236,205.623 429.087,253.38 394.171,253.38 			"/>
			<path style="fill:#D68D8D;" d="M441.502,219.719l13.185,25.823l0.26,11.565l-1.003,0.117c-4.694,0.547-9.285-1.65-11.803-5.649
				l-10.724-17.03L441.502,219.719z"/>
			<polygon style="fill:#422424;" points="446.738,229.973 435.85,241.586 450.48,237.266 			"/>
			<path style="fill:#D68D8D;" d="M392.55,220.003l-12.233,23.251h-30.866l-1.614-1.327c-1.326-1.09-2.94-1.771-4.646-1.961
				l-2.535-0.282c-0.365-0.04-0.684,0.245-0.684,0.612l0,0c0,0.374,0.207,0.718,0.537,0.894l3.878,2.064l-4.491,0.707
				c-0.433,0.068-0.874,0.067-1.306-0.004l-2.075-0.339c-0.651-0.106-1.242,0.396-1.242,1.055v2.641
				c0,0.512,0.362,0.951,0.865,1.049l5.779,1.128l-1.458,0.707c-0.36,0.174-0.754,0.266-1.154,0.268l-2.706,0.014
				c0,0,4.508,3.143,11.394-0.503l28.896,7.218c6.17,1.541,12.641-0.982,16.139-6.293l9.892-15.021L392.55,220.003z"/>
			<path style="fill:#28364F;" d="M392.747,251.293l1.909-21.791l-11.21,27.842C387.138,256.606,390.492,254.489,392.747,251.293z"
				/>
			<path style="fill:#1B2536;" d="M416.044,412.246l1.226-8.091c0.624-4.12,0.077-8.305-1.517-12.113l-6.15,7.83l-5.422-1.759
				l-2.216,6.496c-0.277,0.813-0.743,1.55-1.358,2.15l-3.83,3.736c-0.655,0.639-0.203,1.751,0.713,1.751h1.784
				c2.581,0,5.044-1.086,6.785-2.991l7.556-8.27v11.261H416.044z"/>
			<path style="fill:#1B2536;" d="M451.286,412.246h3.404c0.965,0,1.391-1.216,0.637-1.818l-3.772-3.013
				c-0.658-0.526-1.186-1.196-1.542-1.959l-3.562-7.624l-6.29,2.04l-6.17-7.855l-0.13,0.42c-1.114,3.59-1.315,7.401-0.586,11.089
				l1.724,8.721h2.673l0.729-9.471l6.19,6.578C446.33,411.199,448.752,412.246,451.286,412.246z"/>
			<path style="fill:#415780;" d="M394.171,253.38h34.917l6.336,13.309c4.836,10.158,7.209,21.312,6.928,32.558l-0.491,19.649
				c-0.143,5.729,0.222,11.46,1.093,17.124l3.31,21.542h-48.527l-9.848-57.458c-1.888-11.013-1.171-22.315,2.093-33.001
				L394.171,253.38z"/>
			<path style="fill:#1B2536;" d="M440.511,281.27c-1.164-5.013-2.862-9.904-5.089-14.582l-6.336-13.309h-34.917l-4.191,13.722
				c-0.596,1.951-1.104,3.922-1.53,5.908C395.072,272.574,421.076,271.595,440.511,281.27z"/>
			
				<line style="fill:none;stroke:#28364F;stroke-width:0.3698;stroke-miterlimit:10;" x1="396.761" y1="257.106" x2="426.495" y2="257.106"/>
			<path style="fill:#D68D8D;" d="M405.107,187.82v5.104c0,0-3.605,7.676,4.217,9.116l-0.572,5.83l2.875,19.458l8.608-21.706
				l-0.547-10.248l0.243-4.395c0,0-6.319-3.646-7.352-9.053C412.581,181.927,410.211,185.39,405.107,187.82z"/>
			<path style="fill:#D68D8D;" d="M423.375,190.247c1.317,1.026,1.416,3.101,0.221,4.633c-1.195,1.533-3.23,1.943-4.547,0.916
				c-1.317-1.026-1.415-3.101-0.221-4.633C420.023,189.631,422.058,189.22,423.375,190.247z"/>
			<path style="fill:#1B2536;" d="M408.368,190.904l0.853,0.177c0.009-0.058,0.018-0.116,0.018-0.177c0-0.663-0.537-1.2-1.2-1.2
				c-0.663,0-1.2,0.537-1.2,1.2c0,0.663,0.537,1.2,1.2,1.2c0.451,0,0.838-0.251,1.044-0.618L408.368,190.904z"/>
			<path style="fill:#1B2536;" d="M414.322,190.904l0.853,0.177c0.009-0.058,0.018-0.116,0.018-0.177c0-0.663-0.537-1.2-1.2-1.2
				c-0.663,0-1.2,0.537-1.2,1.2c0,0.663,0.537,1.2,1.2,1.2c0.451,0,0.838-0.251,1.044-0.618L414.322,190.904z"/>
			<g>
				<path style="fill:none;stroke:#415780;stroke-width:0.75;stroke-miterlimit:10;" d="M412.176,188.338c0,0,1.499-0.587,3.281,0"
					/>
				<path style="fill:none;stroke:#415780;stroke-width:0.75;stroke-miterlimit:10;" d="M409.077,188.338c0,0-1.236-0.535-2.674,0"
					/>
			</g>
			<g>
				<path style="fill:none;stroke:#422424;stroke-width:0.5;stroke-miterlimit:10;" d="M409.755,202.19c0,0,4.618,0.76,7.352-2.43"
					/>
				<path style="fill:none;stroke:#422424;stroke-width:0.5;stroke-miterlimit:10;" d="M419.482,194.18
					c0.147-2.673,2.618-4.273,3.813-2.076"/>
				
					<line style="fill:none;stroke:#422424;stroke-width:0.5;stroke-miterlimit:10;" x1="421.857" y1="193.289" x2="421.145" y2="191.238"/>
				<path style="fill:none;stroke:#422424;stroke-width:0.5;stroke-miterlimit:10;" d="M410.363,188.884l0.295,3.028
					c0.041,0.421-0.139,0.828-0.47,1.092c-0.394,0.315-0.843,0.775-0.737,1.176c0.182,0.689,1.793,0.628,1.793,0.628"/>
				<path style="fill:none;stroke:#422424;stroke-width:0.5;stroke-miterlimit:10;" d="M408.996,196.266
					c0,0,2.339,1.063,5.134-1.094"/>
				
					<line style="fill:none;stroke:#422424;stroke-width:0.5;stroke-miterlimit:10;" x1="413.715" y1="194.706" x2="414.484" y2="195.618"/>
				
					<line style="fill:none;stroke:#422424;stroke-width:0.5;stroke-miterlimit:10;" x1="417.502" y1="204.711" x2="414.13" y2="209.511"/>
			</g>
			<path style="fill:#415780;" d="M420.236,205.623l-4.71,57.935c-0.289,3.551,2.515,6.591,6.077,6.591h20.04l-6.967-28.922
				l9.235-22.846L420.236,205.623z"/>
			
				<line style="fill:none;stroke:#000000;stroke-width:0.3698;stroke-miterlimit:10;" x1="434.677" y1="241.228" x2="430.464" y2="223.648"/>
			<path style="fill:#415780;" d="M408.83,206.791l-4.192,58.335c-0.203,2.831-2.559,5.023-5.397,5.023h-14.55l9.965-41.438
				l-4.739-11.423L408.83,206.791z"/>
			
				<line style="fill:none;stroke:#000000;stroke-width:0.3698;stroke-miterlimit:10;" x1="397.735" y1="216.276" x2="394.657" y2="228.712"/>
			<path style="fill:none;stroke:#28364F;stroke-width:0.3698;stroke-miterlimit:10;" d="M421.212,207.111l2.728,4.305
				c1.106,1.745,1.382,3.891,0.753,5.859l-2.735,8.561l1.744,2.691c1.242,1.917,1.467,4.321,0.603,6.436l-6.802,16.635"/>
			<path style="fill:none;stroke:#28364F;stroke-width:0.3698;stroke-miterlimit:10;" d="M408.024,207.851l-2.856,4.427
				c-1.28,1.984-1.693,4.406-1.142,6.703l1.568,6.531l-2.486,2.588c-2.124,2.211-2.917,5.381-2.086,8.332l3.681,13.06"/>
			<polyline style="fill:none;stroke:#422424;stroke-width:0.407;stroke-miterlimit:10;" points="335.274,245.157 339.689,245.846 
				342.71,245.616 			"/>
			<polyline style="fill:none;stroke:#422424;stroke-width:0.407;stroke-miterlimit:10;" points="335.274,246.525 339.649,247.466 
				342.311,247.641 			"/>
			
				<line style="fill:none;stroke:#422424;stroke-width:0.407;stroke-miterlimit:10;" x1="342.899" y1="244.658" x2="342.143" y2="248.495"/>
			<polygon style="fill:#EBBC3B;" points="464.228,247.43 438.237,256.009 432.613,242.782 462.006,231.924 			"/>
			<path style="fill:#1B2536;" d="M442.494,254.604l4.471-10.637c0,0-2.146-3.192-2.315-5.696l7.612,4.621l-2.098,9.281
				L442.494,254.604z"/>
			<path style="fill:#D68D8D;" d="M448.692,242.848l-1.626,5.957c-0.992,3.632,1.153,7.379,4.787,8.364l0,0
				c1.773,0.48,3.668,0.051,5.061-1.146l0,0c2.077-1.785,2.932-4.611,2.194-7.249l-2.112-7.546l0.773-6.005
				c0.067-0.523-0.273-1.011-0.787-1.129l0,0c-0.536-0.123-1.074,0.2-1.217,0.732l-0.753,2.797l-1.046-2.601
				c-0.343-0.853-1.301-1.281-2.165-0.967l-6.075,2.209c-0.818,0.298-1.292,1.163-1.076,2.006
				C445.014,239.695,446.004,241.753,448.692,242.848z"/>
			
				<line style="fill:none;stroke:#422424;stroke-width:0.407;stroke-miterlimit:10;" x1="450.651" y1="234.473" x2="452.262" y2="237.54"/>
			
				<line style="fill:none;stroke:#422424;stroke-width:0.407;stroke-miterlimit:10;" x1="448.449" y1="235.278" x2="450.221" y2="238.666"/>
			
				<line style="fill:none;stroke:#422424;stroke-width:0.407;stroke-miterlimit:10;" x1="446.262" y1="236.033" x2="448.066" y2="239.486"/>
			
				<line style="fill:none;stroke:#FFFFFF;stroke-width:0.389;stroke-miterlimit:10;" x1="398.73" y1="353.746" x2="444.28" y2="353.746"/>
		</g>
		<g>
			<path style="fill:#415780;" d="M164.591,213.846l10.809,36.592c1.336,4.523,0.663,9.402-1.848,13.394l-8.203,13.042l-8.142-27.22
				l-2.746-45.084l1.817,0.618C160.291,206.553,163.391,209.781,164.591,213.846z"/>
			<polygon style="fill:#1B2536;" points="167.644,273.227 160.854,248.195 161.744,228.257 			"/>
			<path style="fill:#CF7F4C;" d="M195.365,390.737l1.297,3.486c0.907,2.44,2.887,4.328,5.367,5.118l8.434,2.689
				c2.836,0.904,5.233,2.831,6.726,5.406l2.541,4.384h-36.164c-1.102,0-1.882-1.077-1.538-2.124l2.608-7.943
				c0.498-1.517,0.524-3.148,0.074-4.68l-1.861-6.337H195.365z"/>
			<path d="M219.73,411.82l-2.541-4.384c-1.493-2.575-3.89-4.502-6.726-5.406l-8.434-2.689c-0.621-0.198-1.211-0.465-1.76-0.792
				l-0.808,1.617c-1.164,2.329-3.735,3.599-6.292,3.11l-8.507-1.628c-0.011,0.035-0.015,0.071-0.026,0.105l-2.608,7.943
				c-0.344,1.047,0.436,2.124,1.538,2.124H219.73z"/>
			<polygon style="fill:#CF7F4C;" points="137.441,390.737 137.441,398.55 140.763,412.246 122.669,412.246 125.451,398.55 
				124.965,390.737 			"/>
			<path d="M131.561,398.55L131.561,398.55c-3.555,0-6.619,2.504-7.327,5.988l-1.566,7.708h18.094l-1.936-7.982
				C138.014,400.911,135.012,398.55,131.561,398.55z"/>
			<polygon style="fill:#415780;" points="164.249,268.934 199.011,394.018 181.63,394.018 140.358,293.886 140.358,394.018 
				121.824,394.018 111.679,268.934 145.542,252.691 			"/>
			<polygon style="fill:#1B2536;" points="164.249,268.934 145.542,252.691 111.679,268.934 112.194,275.282 168.262,283.374 			"/>
			
				<line style="fill:none;stroke:#000000;stroke-width:0.3698;stroke-miterlimit:10;" x1="140.358" y1="293.886" x2="141.538" y2="253.483"/>
			<path style="fill:none;stroke:#000000;stroke-width:0.3698;stroke-miterlimit:10;" d="M147.487,257.431l-0.834,14.832
				c-0.165,2.929-1.593,5.642-3.914,7.436l-2.012,1.555"/>
			
				<line style="fill:none;stroke:#000000;stroke-width:0.3698;stroke-miterlimit:10;" x1="131.203" y1="281.977" x2="153.077" y2="285.137"/>
			
				<line style="fill:none;stroke:#000000;stroke-width:0.3698;stroke-miterlimit:10;" x1="122.669" y1="388.82" x2="138.432" y2="388.82"/>
			
				<line style="fill:none;stroke:#000000;stroke-width:0.3698;stroke-miterlimit:10;" x1="180.985" y1="388.82" x2="196.748" y2="388.82"/>
			
				<line style="fill:none;stroke:#000000;stroke-width:0.3698;stroke-miterlimit:10;" x1="145.559" y1="284.051" x2="185.401" y2="388.82"/>
			
				<line style="fill:none;stroke:#000000;stroke-width:0.3698;stroke-miterlimit:10;" x1="118.808" y1="269.342" x2="127.072" y2="388.82"/>
			<path style="fill:#415780;" d="M141.044,267.449l4.175-9.532l1.627,9.04c1.023,5.685,5.751,9.964,11.509,10.417l10.64,0.837
				l-8.142-30.015l1.507-33.768c0.187-4.185-2.412-7.99-6.377-9.339l-13.844-4.71h-12.76l-12.945,3.355
				c-6.606,1.712-12.339,5.82-16.083,11.526l-15.734,23.976c-3.831,5.837-3.962,13.357-0.338,19.325
				c1.831,3.014,5.765,3.97,8.772,2.128l10.605-6.496l13.813-14.896l-8.749,34.177l19.686,1.548
				C133.802,275.443,138.873,272.405,141.044,267.449z"/>
			<g>
				
					<line style="fill:none;stroke:#000000;stroke-width:0.4321;stroke-miterlimit:10;" x1="162.92" y1="248.803" x2="170.94" y2="248.803"/>
				
					<line style="fill:none;stroke:#000000;stroke-width:0.4321;stroke-miterlimit:10;" x1="164.249" y1="250.139" x2="170.94" y2="252.691"/>
				<polyline style="fill:none;stroke:#000000;stroke-width:0.3698;stroke-miterlimit:10;" points="162.292,215.986 
					160.854,248.195 166.93,270.594 				"/>
			</g>
			<path style="fill:none;stroke:#1B2536;stroke-width:0.4321;stroke-miterlimit:10;" d="M143.355,245.279l2.51,8.523
				c0.264,0.895,0.225,1.852-0.111,2.723l-0.536,1.392"/>
			<path style="fill:none;stroke:#FFFFFF;stroke-width:0.4321;stroke-miterlimit:10;" d="M143.355,254.384
				c0,0.671-0.544,1.215-1.215,1.215c-0.671,0-1.215-0.544-1.215-1.215c0-0.671,0.544-1.215,1.215-1.215
				C142.811,253.168,143.355,253.712,143.355,254.384z"/>
			
				<line style="fill:none;stroke:#000000;stroke-width:0.4277;stroke-miterlimit:10;" x1="109.087" y1="212.711" x2="115.349" y2="231.061"/>
			<g>
				
					<rect x="101.549" y="224.008" transform="matrix(0.965 -0.2621 0.2621 0.965 -59.2685 38.6114)" style="fill:#EBBC3B;" width="27.146" height="34.997"/>
				<path style="fill:#FFFFFF;" d="M112.068,223.616l-0.265-0.977c-0.252-0.928-1.209-1.477-2.137-1.224
					c-0.928,0.252-1.477,1.209-1.224,2.137l0.265,0.977l-2.58,0.701l0.701,2.58l8.522-2.314l-0.701-2.58L112.068,223.616z"/>
			</g>
			<polygon style="fill:#1B2536;" points="106.609,261.951 129.141,241.338 127.307,234.584 101.45,244.165 			"/>
			<g>
				<path style="fill:#CF7F4C;" d="M113.9,238.249l5.236-3.835l2.882-1.095c0.599-0.228,1.287,0.137,1.547,0.819l0.169,0.445
					l3.635-1.067c0.745-0.219,1.548,0.323,1.755,1.185l0.575,2.396c0.148,0.614-0.05,1.24-0.499,1.578l-0.895,0.675l0.027,0.104
					c0.222,0.843-0.072,1.709-0.722,2.124l-4.082,2.604c-0.745,0.475-1.562,0.809-2.42,0.99l-4.523,0.95L113.9,238.249z"/>
				
					<line style="fill:none;stroke:#422424;stroke-width:0.5;stroke-miterlimit:10;" x1="121.922" y1="237.697" x2="129.141" y2="234.773"/>
				
					<line style="fill:none;stroke:#422424;stroke-width:0.5;stroke-miterlimit:10;" x1="123.125" y1="239.996" x2="129.571" y2="236.563"/>
				
					<line style="fill:none;stroke:#422424;stroke-width:0.5;stroke-miterlimit:10;" x1="124.066" y1="241.997" x2="128.306" y2="239.35"/>
				
					<line style="fill:none;stroke:#422424;stroke-width:0.5;stroke-miterlimit:10;" x1="123.734" y1="234.584" x2="119.967" y2="236.116"/>
			</g>
			<polygon style="fill:#FFFFFF;" points="111.679,238.311 114.735,237.228 118.565,247.466 113.623,250.139 			"/>
			<path style="fill:none;stroke:#1B2536;stroke-width:0.4321;stroke-miterlimit:10;" d="M127.976,202.099l-4.704,5.666
				c-1.344,1.619-1.262,3.989,0.191,5.511l9.117,9.552l-3.237,4.175c-1.223,1.578-1.148,3.803,0.178,5.295l14.972,16.844
				l7.187-19.303c0.626-1.682,0.099-3.576-1.306-4.693l-4.103-3.261l4.539-10.229c0.763-1.719,0.273-3.735-1.192-4.913l-5.778-4.645
				"/>
			<path style="fill:#415780;" d="M88.797,245.507l22.883-7.195l4.375,11.666l-15.972,11.452c-5.282,3.787-12.67,2.279-16.046-3.275
				h0C81.142,253.392,83.481,247.178,88.797,245.507z"/>
			
				<line style="fill:none;stroke:#000000;stroke-width:0.4321;stroke-miterlimit:10;" x1="89.521" y1="245.279" x2="110.738" y2="238.607"/>
			<polygon style="fill:#FFFFFF;" points="129.38,200.377 143.355,245.279 142.14,200.377 			"/>
			<polygon style="fill:#DDE9EB;" points="137.279,204.57 132.184,209.385 132.732,211.147 137.482,206.23 142.373,208.976 
				142.327,207.273 			"/>
			<g>
				<path style="fill:#1B2536;" d="M143.963,180.144c3.403-2.37,5.043-8.446,0-10.694c-5.043-2.248-11.605,1.337-14.886,4.01
					c-4.253-1.58-8.81,6.076-3.524,7.595l1.337,5.918L143.963,180.144z"/>
				<path style="fill:#CF7F4C;" d="M129.866,185.552c0,0,3.22-1.701,3.038-7.899h11.605l0.608,7.048
					c2.552,2.127,2.552,8.932-3.646,9.965l0.668,5.711l-4.861,4.193l-7.899-4.193l-0.304-11.362L129.866,185.552z"/>
				<path style="fill:#CF5A42;" d="M137.731,187.277c0,0.942-0.763,1.705-1.705,1.705c-0.942,0-1.705-0.763-1.705-1.705
					c0-0.942,0.763-1.705,1.705-1.705C136.968,185.572,137.731,186.336,137.731,187.277z"/>
				<path style="fill:#1B2536;" d="M136.884,181.724c-0.621,0-1.124,0.503-1.124,1.124c0,0.111,0.021,0.217,0.051,0.319l0.852-0.232
					l-0.516,0.756c0.198,0.173,0.454,0.282,0.738,0.282c0.621,0,1.124-0.503,1.124-1.124S137.505,181.724,136.884,181.724z"/>
				<path style="fill:#1B2536;" d="M142.494,181.724c-0.621,0-1.124,0.503-1.124,1.124c0,0.111,0.021,0.217,0.051,0.319l0.852-0.232
					l-0.516,0.756c0.198,0.173,0.454,0.282,0.737,0.282c0.621,0,1.124-0.503,1.124-1.124S143.115,181.724,142.494,181.724z"/>
				<g>
					<path style="fill:none;stroke:#1B2536;stroke-width:0.8641;stroke-miterlimit:10;" d="M140.767,180.489
						c0,0,1.183-0.608,3.067-0.101"/>
					<path style="fill:none;stroke:#1B2536;stroke-width:0.8641;stroke-miterlimit:10;" d="M138.231,180.489
						c0,0-1.183-0.608-3.067-0.101"/>
				</g>
				<path style="fill:#1B2536;" d="M136.884,187.375h6.451c0,0-0.435-1.802-3.225-1.802S136.884,187.375,136.884,187.375z"/>
				<path style="fill:#CF7F4C;" d="M131.568,187.587c0,2.131-1.727,3.858-3.858,3.858c-2.131,0-3.858-1.727-3.858-3.858
					c0-2.131,1.727-3.858,3.858-3.858C129.84,183.729,131.568,185.456,131.568,187.587z"/>
				<g>
					<path style="fill:none;stroke:#422424;stroke-width:0.5;stroke-miterlimit:10;" d="M140.054,181.319l0.138,1.985l1.165,1.669
						c0.176,0.253-0.004,0.599-0.312,0.599h-1.781"/>
					<path style="fill:none;stroke:#422424;stroke-width:0.5;stroke-miterlimit:10;" d="M141.988,189.532c0,0-1.155,0.486-2.856,0"
						/>
					<path style="fill:none;stroke:#422424;stroke-width:0.5;stroke-miterlimit:10;" d="M140.767,194.767
						c0,0-5.959,1.215-9.524-2.592"/>
					<path style="fill:none;stroke:#422424;stroke-width:0.5;stroke-miterlimit:10;" d="M125.552,187.01
						c1.154-1.883,3.524-1.883,4.922,1.215"/>
					
						<line style="fill:none;stroke:#422424;stroke-width:0.5;stroke-miterlimit:10;" x1="127.71" y1="188.225" x2="128.243" y2="185.829"/>
				</g>
			</g>
			<polygon style="fill:#D65353;" points="140.439,206.241 137.279,204.57 134.697,207.03 137.129,209.532 136.469,223.152 
				143.355,245.279 142.759,223.24 139.275,209.37 			"/>
		</g>
		<g>
			<path style="fill:#4A75C9;" d="M510.696,306.032h-55.909c-1.657,0-3-1.343-3-3v-29.248c0-1.657,1.343-3,3-3h55.909
				c1.657,0,3,1.343,3,3v29.248C513.696,304.689,512.353,306.032,510.696,306.032z"/>
			<g>
				
					<rect x="458.46" y="277.626" style="fill:none;stroke:#FFFFFF;stroke-width:0.3975;stroke-miterlimit:10;" width="18.188" height="7.5"/>
				
					<line style="fill:none;stroke:#FFFFFF;stroke-width:0.3975;stroke-miterlimit:10;" x1="458.46" y1="289.814" x2="507.023" y2="289.814"/>
				
					<line style="fill:none;stroke:#FFFFFF;stroke-width:0.3975;stroke-miterlimit:10;" x1="458.46" y1="294.501" x2="507.023" y2="294.501"/>
				
					<line style="fill:none;stroke:#FFFFFF;stroke-width:0.3975;stroke-miterlimit:10;" x1="458.46" y1="299.189" x2="507.023" y2="299.189"/>
			</g>
		</g>
		<g>
			<path style="fill:#4A75C9;" d="M510.696,347.058h-55.909c-1.657,0-3-1.343-3-3V314.81c0-1.657,1.343-3,3-3h55.909
				c1.657,0,3,1.343,3,3v29.248C513.696,345.715,512.353,347.058,510.696,347.058z"/>
			<g>
				
					<rect x="458.46" y="318.653" style="fill:none;stroke:#FFFFFF;stroke-width:0.3975;stroke-miterlimit:10;" width="18.188" height="7.5"/>
				
					<line style="fill:none;stroke:#FFFFFF;stroke-width:0.3975;stroke-miterlimit:10;" x1="458.46" y1="330.841" x2="507.023" y2="330.841"/>
				
					<line style="fill:none;stroke:#FFFFFF;stroke-width:0.3975;stroke-miterlimit:10;" x1="458.46" y1="335.528" x2="507.023" y2="335.528"/>
				
					<line style="fill:none;stroke:#FFFFFF;stroke-width:0.3975;stroke-miterlimit:10;" x1="458.46" y1="340.216" x2="507.023" y2="340.216"/>
			</g>
		</g>
	</g>
</g>
</svg>
